{
  "source": "C:\\Users\\Peter\\Desktop\\stuff\\MIUN\\quantitative_research\\video_compression\\videos\\UVG\\Beauty_1920x1080_120fps_420_8bit_YUV.y4m",
  "output": "C:\\Users\\Peter\\Desktop\\stuff\\MIUN\\quantitative_research\\video_compression\\compressed_videos\\UVG\\h264\\8\\Beauty_1920x1080_120fps_420_8bit_YUV_h264.mp4",
  "codec": "h264",
  "ok": "[yuv4mpegpipe @ 00000265247f6600] Stream #0: not enough frames to estimate rate; consider increasing probesize\nInput #0, yuv4mpegpipe, from 'C:\\Users\\Peter\\Desktop\\stuff\\MIUN\\quantitative_research\\video_compression\\videos\\UVG\\Beauty_1920x1080_120fps_420_8bit_YUV.y4m':\n  Duration: 00:00:05.00, start: 0.000000, bitrate: 2985989 kb/s\n  Stream #0:0: Video: rawvideo (I420 / 0x30323449), yuv420p(progressive), 1920x1080, 120 fps, 120 tbr, 120 tbn\n[out#0/mp4 @ 00000265247fa180] Codec AVOption b:a (set bitrate (in bits/s)) has not been used for any stream. The most likely reason is either wrong type (e.g. a video option with no video streams) or that it is a private option of some decoder which was not actually used for any stream.\nStream mapping:\n  Stream #0:0 -> #0:0 (rawvideo (native) -> h264 (libx264))\nPress [q] to stop, [?] for help\n[libx264 @ 00000265247fc940] using cpu capabilities: MMX2 SSE2Fast SSSE3 SSE4.2 AVX FMA3 BMI2 AVX2\n[libx264 @ 00000265247fc940] profile High, level 5.1, 4:2:0, 8-bit\n[libx264 @ 00000265247fc940] 264 - core 165 r3222 b35605a - H.264/MPEG-4 AVC codec - Copyleft 2003-2025 - http://www.videolan.org/x264.html - options: cabac=1 ref=5 deblock=1:0:0 analyse=0x3:0x113 me=hex subme=8 psy=1 psy_rd=1.00:0.00 mixed_ref=1 me_range=16 chroma_me=1 trellis=2 8x8dct=1 cqm=0 deadzone=21,11 fast_pskip=1 chroma_qp_offset=-2 threads=18 lookahead_threads=3 sliced_threads=0 nr=0 decimate=1 interlaced=0 bluray_compat=0 constrained_intra=0 bframes=3 b_pyramid=2 b_adapt=1 b_bias=0 direct=3 weightb=1 open_gop=0 weightp=2 keyint=250 keyint_min=25 scenecut=40 intra_refresh=0 rc_lookahead=50 rc=cbr mbtree=1 bitrate=8000 ratetol=1.0 qcomp=0.60 qpmin=0 qpmax=69 qpstep=4 vbv_maxrate=8000 vbv_bufsize=8000 nal_hrd=none filler=0 ip_ratio=1.40 aq=1:1.00\nOutput #0, mp4, to 'C:\\Users\\Peter\\Desktop\\stuff\\MIUN\\quantitative_research\\video_compression\\compressed_videos\\UVG\\h264\\8\\Beauty_1920x1080_120fps_420_8bit_YUV_h264.mp4':\n  Metadata:\n    encoder         : Lavf62.3.100\n  Stream #0:0: Video: h264 (avc1 / 0x31637661), yuv420p(tv, progressive), 1920x1080, q=2-31, 8000 kb/s, 120 fps, 15360 tbn\n    Metadata:\n      encoder         : Lavc62.11.100 libx264\n    Side data:\n      cpb: bitrate max/min/avg: 8000000/0/8000000 buffer size: 8000000 vbv_delay: N/A\nframe=    0 fps=0.0 q=0.0 size=       0KiB time=N/A bitrate=N/A speed=N/A elapsed=0:00:00.50    \nframe=    0 fps=0.0 q=0.0 size=       0KiB time=N/A bitrate=N/A speed=N/A elapsed=0:00:01.02    \nframe=    0 fps=0.0 q=0.0 size=       0KiB time=N/A bitrate=N/A speed=N/A elapsed=0:00:01.53    \nframe=    0 fps=0.0 q=0.0 size=       0KiB time=N/A bitrate=N/A speed=N/A elapsed=0:00:02.08    \nframe=   14 fps=5.3 q=34.0 size=       0KiB time=00:00:00.10 bitrate=   3.8kbits/s speed=0.0382x elapsed=0:00:02.61    \nframe=   30 fps=9.5 q=33.0 size=       0KiB time=00:00:00.23 bitrate=   1.6kbits/s speed=0.0739x elapsed=0:00:03.15    \nframe=   48 fps= 13 q=33.0 size=     256KiB time=00:00:00.38 bitrate=5471.8kbits/s speed=0.103x elapsed=0:00:03.73    \nframe=   66 fps= 15 q=33.0 size=     256KiB time=00:00:00.53 bitrate=3932.9kbits/s speed=0.124x elapsed=0:00:04.28    \nframe=   67 fps= 14 q=33.0 size=     256KiB time=00:00:00.54 bitrate=3872.4kbits/s speed=0.112x elapsed=0:00:04.84    \nframe=   69 fps= 13 q=33.0 size=     256KiB time=00:00:00.55 bitrate=3756.8kbits/s speed=0.104x elapsed=0:00:05.36    \nframe=   77 fps= 13 q=33.0 size=     256KiB time=00:00:00.62 bitrate=3356.1kbits/s speed=0.105x elapsed=0:00:05.97    \nframe=   85 fps= 13 q=33.0 size=     512KiB time=00:00:00.68 bitrate=6138.6kbits/s speed=0.104x elapsed=0:00:06.58    \nframe=   93 fps= 13 q=33.0 size=     512KiB time=00:00:00.75 bitrate=5592.9kbits/s speed=0.105x elapsed=0:00:07.17    \nframe=  102 fps= 13 q=33.0 size=     512KiB time=00:00:00.82 bitrate=5084.5kbits/s speed=0.106x elapsed=0:00:07.74    \nframe=  110 fps= 13 q=33.0 size=     768KiB time=00:00:00.90 bitrate=6990.9kbits/s speed=0.109x elapsed=0:00:08.27    \nframe=  121 fps= 14 q=33.0 size=     768KiB time=00:00:00.98 bitrate=6398.5kbits/s speed=0.111x elapsed=0:00:08.85    \nframe=  130 fps= 14 q=33.0 size=     768KiB time=00:00:01.06 bitrate=5898.6kbits/s speed=0.113x elapsed=0:00:09.42    \nframe=  138 fps= 14 q=33.0 size=    1024KiB time=00:00:01.13 bitrate=7402.1kbits/s speed=0.114x elapsed=0:00:09.94    \nframe=  145 fps= 14 q=33.0 size=    1024KiB time=00:00:01.19 bitrate=7039.7kbits/s speed=0.114x elapsed=0:00:10.45    \nframe=  154 fps= 14 q=33.0 size=    1024KiB time=00:00:01.26 bitrate=6622.9kbits/s speed=0.115x elapsed=0:00:10.98    \nframe=  162 fps= 14 q=33.0 size=    1024KiB time=00:00:01.33 bitrate=6291.7kbits/s speed=0.115x elapsed=0:00:11.56    \nframe=  171 fps= 14 q=33.0 size=    1280KiB time=00:00:01.40 bitrate=7445.8kbits/s speed=0.116x elapsed=0:00:12.14    \nframe=  179 fps= 14 q=33.0 size=    1280KiB time=00:00:01.46 bitrate=7149.6kbits/s speed=0.116x elapsed=0:00:12.68    \nframe=  186 fps= 14 q=33.0 size=    1280KiB time=00:00:01.53 bitrate=6838.8kbits/s speed=0.116x elapsed=0:00:13.23    \nframe=  193 fps= 14 q=33.0 size=    1280KiB time=00:00:01.59 bitrate=6588.2kbits/s speed=0.116x elapsed=0:00:13.77    \nframe=  201 fps= 14 q=33.0 size=    1280KiB time=00:00:01.65 bitrate=6323.3kbits/s speed=0.116x elapsed=0:00:14.31    \nframe=  209 fps= 14 q=33.0 size=    1536KiB time=00:00:01.71 bitrate=7330.1kbits/s speed=0.115x elapsed=0:00:14.87    \nframe=  217 fps= 14 q=33.0 size=    1536KiB time=00:00:01.78 bitrate=7056.1kbits/s speed=0.115x elapsed=0:00:15.49    \nframe=  225 fps= 14 q=33.0 size=    1536KiB time=00:00:01.85 bitrate=6771.3kbits/s speed=0.116x elapsed=0:00:16.03    \nframe=  237 fps= 14 q=34.0 size=    1792KiB time=00:00:01.91 bitrate=7659.4kbits/s speed=0.116x elapsed=0:00:16.58    \nframe=  249 fps= 14 q=33.0 size=    1792KiB time=00:00:02.05 bitrate=7132.2kbits/s speed=0.12x elapsed=0:00:17.18    \nframe=  267 fps= 15 q=33.0 size=    2048KiB time=00:00:02.20 bitrate=7597.4kbits/s speed=0.124x elapsed=0:00:17.83    \nframe=  284 fps= 15 q=33.0 size=    2048KiB time=00:00:02.33 bitrate=7190.4kbits/s speed=0.127x elapsed=0:00:18.39    \nframe=  297 fps= 16 q=33.0 size=    2304KiB time=00:00:02.45 bitrate=7677.9kbits/s speed=0.13x elapsed=0:00:18.96    \nframe=  309 fps= 16 q=33.0 size=    2304KiB time=00:00:02.55 bitrate=7377.8kbits/s speed=0.131x elapsed=0:00:19.50    \nframe=  318 fps= 16 q=33.0 size=    2304KiB time=00:00:02.63 bitrate=7167.6kbits/s speed=0.131x elapsed=0:00:20.06    \nframe=  333 fps= 16 q=33.0 size=    2560KiB time=00:00:02.75 bitrate=7603.1kbits/s speed=0.134x elapsed=0:00:20.58    \nframe=  346 fps= 16 q=33.0 size=    2560KiB time=00:00:02.83 bitrate=7401.8kbits/s speed=0.134x elapsed=0:00:21.17    \nframe=  346 fps= 16 q=33.0 size=    2560KiB time=00:00:02.86 bitrate=7315.8kbits/s speed=0.132x elapsed=0:00:21.72    \nframe=  347 fps= 16 q=33.0 size=    2560KiB time=00:00:02.87 bitrate=7294.6kbits/s speed=0.129x elapsed=0:00:22.24    \nframe=  361 fps= 16 q=33.0 size=    2816KiB time=00:00:02.99 bitrate=7711.1kbits/s speed=0.131x elapsed=0:00:22.86    \nframe=  375 fps= 16 q=33.0 size=    2816KiB time=00:00:03.10 bitrate=7421.7kbits/s speed=0.133x elapsed=0:00:23.42    \nframe=  386 fps= 16 q=33.0 size=    3072KiB time=00:00:03.20 bitrate=7864.4kbits/s speed=0.133x elapsed=0:00:23.97    \nframe=  402 fps= 16 q=33.0 size=    3072KiB time=00:00:03.32 bitrate=7568.8kbits/s speed=0.136x elapsed=0:00:24.51    \nframe=  410 fps= 16 q=33.0 size=    3072KiB time=00:00:03.40 bitrate=7401.8kbits/s speed=0.135x elapsed=0:00:25.09    \nframe=  421 fps= 16 q=33.0 size=    3328KiB time=00:00:03.49 bitrate=7808.1kbits/s speed=0.136x elapsed=0:00:25.62    \nframe=  430 fps= 16 q=33.0 size=    3328KiB time=00:00:03.56 bitrate=7643.9kbits/s speed=0.136x elapsed=0:00:26.18    \nframe=  447 fps= 17 q=33.0 size=    3328KiB time=00:00:03.70 bitrate=7368.5kbits/s speed=0.138x elapsed=0:00:26.88    \nframe=  461 fps= 17 q=33.0 size=    3584KiB time=00:00:03.77 bitrate=7777.6kbits/s speed=0.137x elapsed=0:00:27.53    \nframe=  463 fps= 16 q=33.0 size=    3584KiB time=00:00:03.84 bitrate=7642.6kbits/s speed=0.137x elapsed=0:00:28.12    \nframe=  466 fps= 16 q=33.0 size=    3584KiB time=00:00:03.86 bitrate=7593.2kbits/s speed=0.135x elapsed=0:00:28.64    \nframe=  470 fps= 16 q=33.0 size=    3584KiB time=00:00:03.88 bitrate=7560.6kbits/s speed=0.133x elapsed=0:00:29.17    \nframe=  480 fps= 16 q=33.0 size=    3584KiB time=00:00:03.96 bitrate=7401.8kbits/s speed=0.133x elapsed=0:00:29.77    \nframe=  489 fps= 16 q=33.0 size=    3840KiB time=00:00:04.05 bitrate=7751.4kbits/s speed=0.133x elapsed=0:00:30.43    \nframe=  498 fps= 16 q=33.0 size=    3840KiB time=00:00:04.13 bitrate=7610.7kbits/s speed=0.133x elapsed=0:00:30.96    \nframe=  509 fps= 16 q=33.0 size=    3840KiB time=00:00:04.20 bitrate=7475.1kbits/s speed=0.133x elapsed=0:00:31.55    \nframe=  520 fps= 16 q=33.0 size=    4096KiB time=00:00:04.30 bitrate=7788.4kbits/s speed=0.134x elapsed=0:00:32.21    \nframe=  528 fps= 16 q=33.0 size=    4096KiB time=00:00:04.38 bitrate=7655.1kbits/s speed=0.134x elapsed=0:00:32.79    \nframe=  549 fps= 16 q=33.0 size=    4352KiB time=00:00:04.55 bitrate=7821.3kbits/s speed=0.137x elapsed=0:00:33.35    \nframe=  567 fps= 17 q=33.0 size=    4352KiB time=00:00:04.70 bitrate=7585.5kbits/s speed=0.138x elapsed=0:00:33.94    \nframe=  589 fps= 17 q=-1.0 size=    4608KiB time=00:00:04.88 bitrate=7730.2kbits/s speed=0.141x elapsed=0:00:34.52    \n[mp4 @ 00000265247fa280] Starting second pass: moving the moov atom to the beginning of the file\n[out#0/mp4 @ 00000265247fa180] video:4794KiB audio:0KiB subtitle:0KiB other streams:0KiB global headers:0KiB muxing overhead: 0.118696%\nframe=  600 fps= 17 q=-1.0 Lsize=    4800KiB time=00:00:04.98 bitrate=7890.3kbits/s speed=0.143x elapsed=0:00:34.94    \n[libx264 @ 00000265247fc940] frame I:3     Avg QP:29.82  size: 39568\n[libx264 @ 00000265247fc940] frame P:367   Avg QP:30.49  size:  9571\n[libx264 @ 00000265247fc940] frame B:230   Avg QP:32.37  size:  5553\n[libx264 @ 00000265247fc940] consecutive B-frames: 48.7%  0.7%  0.0% 50.7%\n[libx264 @ 00000265247fc940] mb I  I16..4: 35.9% 57.3%  6.8%\n[libx264 @ 00000265247fc940] mb P  I16..4:  0.3%  2.5%  0.1%  P16..4: 26.5%  3.1%  3.9%  0.0%  0.0%    skip:63.5%\n[libx264 @ 00000265247fc940] mb B  I16..4:  0.0%  0.6%  0.0%  B16..8: 33.8%  1.8%  0.2%  direct: 0.7%  skip:62.7%  L0:43.7% L1:55.0% BI: 1.3%\n[libx264 @ 00000265247fc940] 8x8 transform intra:79.8% inter:91.1%\n[libx264 @ 00000265247fc940] direct mvs  spatial:95.7% temporal:4.3%\n[libx264 @ 00000265247fc940] coded y,uvDC,uvAC intra: 53.1% 39.1% 7.9% inter: 5.6% 7.1% 0.0%\n[libx264 @ 00000265247fc940] i16 v,h,dc,p: 12% 20%  3% 64%\n[libx264 @ 00000265247fc940] i8 v,h,dc,ddl,ddr,vr,hd,vl,hu:  2%  4%  4%  8% 31% 13% 25%  6%  8%\n[libx264 @ 00000265247fc940] i4 v,h,dc,ddl,ddr,vr,hd,vl,hu:  2%  3%  2%  9% 44% 10% 19%  4%  7%\n[libx264 @ 00000265247fc940] i8c dc,h,v,p: 47% 26% 12% 16%\n[libx264 @ 00000265247fc940] Weighted P-Frames: Y:0.0% UV:0.0%\n[libx264 @ 00000265247fc940] ref P L0: 54.4% 16.6% 15.3%  5.5%  5.1%  3.1%\n[libx264 @ 00000265247fc940] ref B L0: 81.9% 12.3%  4.5%  1.3%\n[libx264 @ 00000265247fc940] ref B L1: 94.9%  5.1%\n[libx264 @ 00000265247fc940] kb/s:7853.46\n",
  "seconds": 35.15672469139099,
  "probe_out": {}
}